<svg xmlns="http://www.w3.org/2000/svg" viewBox="0 0 24 24" fill="currentColor">
  <path d="M21.422 15.358c-4.523-2.024-7.466-3.333-8.838-3.933 2.288-3.935 3.816-8.886 3.816-13.425h-5.19v3.813h-3.813v3.813h3.813v3.813c-.762 1.659-1.827 3.231-3.089 4.596-1.591-1.829-2.639-3.793-2.639-5.78v-2.583h-3.813v2.583c0 2.736 1.562 5.515 3.885 7.913-3.351 1.679-6.096 2.599-6.096 2.599l1.861 3.798s2.745-.92 6.096-2.599c1.591 1.177 3.442 2.322 5.421 3.305-1.716 2.214-4.019 4.115-6.658 5.423l2.245 3.521c3.885-1.978 7.112-4.745 9.27-7.913 2.158 0.92 4.576 1.839 7.244 2.736l1.591-3.882z"/>
</svg>
