<svg xmlns="http://www.w3.org/2000/svg" viewBox="0 0 24 24" fill="currentColor">
  <path d="M8.69 13.09c-.19 0-.34-.15-.34-.34V11.5c0-.19.15-.34.34-.34h1.25c.19 0 .34.15.34.34v1.25c0 .19-.15.34-.34.34H8.69zm5.37 0c-.19 0-.34-.15-.34-.34V11.5c0-.19.15-.34.34-.34h1.25c.19 0 .34.15.34.34v1.25c0 .19-.15.34-.34.34h-1.25zM24 16.5c0 4.14-4.98 7.5-11.1 7.5-1.05 0-2.08-.1-3.06-.28-.83.54-2.46 1.65-3.2 1.96-.15.06-.3.09-.45.09-.44 0-.86-.26-1.04-.67-.1-.23-.09-.47.02-.7l.76-1.58c-2.47-1.29-4.13-3.3-4.13-5.57 0-3.9 4.98-7.06 11.1-7.06S24 12.6 24 16.5zM7.82 2.72c.91 0 1.82.09 2.71.25.74-.48 2.18-1.47 2.84-1.74.13-.05.27-.08.4-.08.39 0 .76.23.92.59.09.2.08.42-.02.62l-.67 1.4c2.19 1.15 3.66 2.93 3.66 4.94 0 3.46-4.41 6.25-9.84 6.25S-2 12.16-2 8.7c0-3.67 4.41-5.98 9.82-5.98z"/>
</svg>
